<?xml version="1.0" encoding="UTF-8"?>
<svg xmlns="http://www.w3.org/2000/svg" xmlns:xlink="http://www.w3.org/1999/xlink" id="Layer_1" data-name="Layer 1" viewBox="0 0 447.19 190.47">
  <defs>
    <style>.cls-1,.cls-2{clip-rule:evenodd;}.cls-2{fill:none;}.cls-13,.cls-3{fill-rule:evenodd;}.cls-4{clip-path:url(#clip-path);}.cls-5{clip-path:url(#clip-path-2);}.cls-6{clip-path:url(#clip-path-3);}.cls-7{clip-path:url(#clip-path-4);}.cls-8{clip-path:url(#clip-path-5);}.cls-9{clip-path:url(#clip-path-6);}.cls-10{clip-path:url(#clip-path-7);}.cls-11{clip-path:url(#clip-path-8);}.cls-12{clip-path:url(#clip-path-9);}.cls-13{fill:#d7162f;}.cls-14{fill:#fff;}.cls-15{clip-path:url(#clip-path-10);}.cls-16{clip-path:url(#clip-path-11);}</style>
    <clipPath id="clip-path" transform="translate(0 -4.84)">
      <polyline class="cls-1" points="227.65 20.17 203.8 20.17 203.8 79.84 192.02 79.84 192.02 20.17 168.17 20.17 168.17 79.84 180.05 91.63 215.77 91.63 227.65 79.84 227.65 20.17"></polyline>
    </clipPath>
    <clipPath id="clip-path-2" transform="translate(0 -4.84)">
      <path class="cls-1" d="M272.15,32.14V56.08H260.36V32.14h11.79m12-12H236.51V91.62h23.85V68h23.76L296,56.08V32.14Z"></path>
    </clipPath>
    <clipPath id="clip-path-3" transform="translate(0 -4.84)">
      <polyline class="cls-1" points="364.33 20.17 316.73 20.17 304.86 32.14 304.86 79.84 316.73 91.63 364.33 91.63 364.33 79.84 328.71 79.84 328.71 56.08 352.46 56.08 352.46 44.2 328.71 44.2 328.71 32.14 364.33 32.14 364.33 20.17"></polyline>
    </clipPath>
    <clipPath id="clip-path-4" transform="translate(0 -4.84)">
      <path class="cls-1" d="M408.83,32.14V56.08H397.05V32.14h11.78m23.85,59.48V68H420.8l11.88-11.88V32.14l-11.88-12H373.2V91.62h23.85V68h11.78V91.62Z"></path>
    </clipPath>
    <clipPath id="clip-path-5" transform="translate(0 -4.84)">
      <polyline class="cls-1" points="168.17 121.19 168.17 133.16 180.05 133.16 180.05 192.65 203.8 192.65 203.8 133.16 215.77 133.16 215.77 121.19 168.17 121.19"></polyline>
    </clipPath>
    <clipPath id="clip-path-6" transform="translate(0 -4.84)">
      <polyline class="cls-1" points="284.03 192.65 284.03 180.86 248.39 180.86 248.39 157.1 272.15 157.1 272.15 145.23 248.39 145.23 248.39 133.16 284.03 133.16 284.03 121.19 236.42 121.19 224.54 133.16 224.54 180.86 236.42 192.65 284.03 192.65"></polyline>
    </clipPath>
    <clipPath id="clip-path-7" transform="translate(0 -4.84)">
      <polyline class="cls-1" points="292.89 133.16 292.89 180.86 304.76 192.65 352.37 192.65 352.37 180.86 316.73 180.86 316.73 157.1 340.49 157.1 340.49 145.23 316.73 145.23 316.73 133.16 352.37 133.16 352.37 121.19 304.76 121.19 292.89 133.16"></polyline>
    </clipPath>
    <clipPath id="clip-path-8" transform="translate(0 -4.84)">
      <polyline class="cls-1" points="361.23 121.19 361.23 192.65 420.71 192.65 420.71 180.86 385.08 180.86 385.08 121.19 361.23 121.19"></polyline>
    </clipPath>
    <clipPath id="clip-path-9" transform="translate(0 -4.84)">
      <polyline class="cls-2" points="1.28 49.02 1.28 77.72 87.07 136.45 87.07 163.1 61.25 163.1 61.25 134.5 1.28 134.5 1.28 194.03 117.69 194.03 147.04 164.91 147.04 135.11 60.81 76.37 60.81 50.83 87.07 50.83 87.07 79.42 147.04 79.42 147.04 19.45 30.62 19.45 1.28 49.02"></polyline>
    </clipPath>
    <clipPath id="clip-path-10" transform="translate(0 -4.84)">
      <path class="cls-1" d="M437.32,6.54a8.17,8.17,0,1,1-8.16,8.17,8.18,8.18,0,0,1,8.16-8.17m-9.86,8v.29a9.87,9.87,0,1,0,0-.29Z"></path>
    </clipPath>
    <clipPath id="clip-path-11" transform="translate(0 -4.84)">
      <path d="M435.89,13.83h1.42A7.14,7.14,0,0,0,439,13.7a1.06,1.06,0,0,0,.54-.41,1.23,1.23,0,0,0,.19-.71,1.12,1.12,0,0,0-.26-.78,1.14,1.14,0,0,0-.72-.37q-.24,0-1.41,0h-1.5v2.42M434,19.34l0-9.54,4.06,0a7.3,7.3,0,0,1,2.22.25,2.17,2.17,0,0,1,1.12.91,2.74,2.74,0,0,1,.42,1.51,2.56,2.56,0,0,1-.63,1.77,3,3,0,0,1-1.88.89,4.33,4.33,0,0,1,1,.8,10,10,0,0,1,1.1,1.54l1.18,1.86h-2.31l-1.4-2.07a11.42,11.42,0,0,0-1-1.4,1.56,1.56,0,0,0-.58-.4,3.28,3.28,0,0,0-1-.1h-.39l0,4Z"></path>
    </clipPath>
  </defs>
  <polyline class="cls-3" points="227.65 15.33 203.8 15.33 203.8 75 192.02 75 192.02 15.33 168.17 15.33 168.17 75 180.05 86.78 215.77 86.78 227.65 75 227.65 15.33"></polyline>
  <g class="cls-4">
    <rect x="168.17" y="15.33" width="59.48" height="71.45"></rect>
  </g>
  <path class="cls-3" d="M272.15,32.14V56.08H260.36V32.14h11.79m12-12H236.51V91.62h23.85V68h23.76L296,56.08V32.14Z" transform="translate(0 -4.84)"></path>
  <g class="cls-5">
    <rect x="236.51" y="15.33" width="59.48" height="71.45"></rect>
  </g>
  <polyline class="cls-3" points="364.33 15.33 316.73 15.33 304.86 27.3 304.86 75 316.73 86.78 364.33 86.78 364.33 75 328.71 75 328.71 51.24 352.46 51.24 352.46 39.36 328.71 39.36 328.71 27.3 364.33 27.3 364.33 15.33"></polyline>
  <g class="cls-6">
    <rect x="304.86" y="15.33" width="59.48" height="71.45"></rect>
  </g>
  <path class="cls-3" d="M408.83,32.14V56.08H397.05V32.14h11.78m23.85,59.48V68H420.8l11.88-11.88V32.14l-11.88-12H373.2V91.62h23.85V68h11.78V91.62Z" transform="translate(0 -4.84)"></path>
  <g class="cls-7">
    <rect x="373.2" y="15.33" width="59.48" height="71.45"></rect>
  </g>
  <polyline class="cls-3" points="168.17 116.35 168.17 128.32 180.05 128.32 180.05 187.8 203.8 187.8 203.8 128.32 215.77 128.32 215.77 116.35 168.17 116.35"></polyline>
  <g class="cls-8">
    <rect x="168.17" y="116.35" width="47.6" height="71.45"></rect>
  </g>
  <polyline class="cls-3" points="284.03 187.8 284.03 176.01 248.39 176.01 248.39 152.26 272.15 152.26 272.15 140.38 248.39 140.38 248.39 128.32 284.03 128.32 284.03 116.35 236.42 116.35 224.54 128.32 224.54 176.01 236.42 187.8 284.03 187.8"></polyline>
  <g class="cls-9">
    <rect x="224.54" y="116.35" width="59.48" height="71.45"></rect>
  </g>
  <polyline class="cls-3" points="292.89 128.32 292.89 176.01 304.76 187.8 352.37 187.8 352.37 176.01 316.73 176.01 316.73 152.26 340.49 152.26 340.49 140.38 316.73 140.38 316.73 128.32 352.37 128.32 352.37 116.35 304.76 116.35 292.89 128.32"></polyline>
  <g class="cls-10">
    <rect x="292.89" y="116.35" width="59.47" height="71.45"></rect>
  </g>
  <polyline class="cls-3" points="361.23 116.35 361.23 187.8 420.71 187.8 420.71 176.01 385.08 176.01 385.08 116.35 361.23 116.35"></polyline>
  <g class="cls-11">
    <rect x="361.23" y="116.35" width="59.48" height="71.45"></rect>
  </g>
  <g class="cls-12">
    <rect x="1.28" y="14.61" width="145.77" height="174.58"></rect>
  </g>
  <polyline class="cls-13" points="1.28 44.18 1.28 72.88 46.83 104.06 108.57 104.06 60.81 71.52 60.81 45.98 87.08 45.98 87.08 74.58 147.04 74.58 147.04 14.61 30.62 14.61 1.28 44.18"></polyline>
  <path class="cls-14" d="M145.76,20.73V78.14H88.35V49.55H60l-.44-1.76V77.05l86.23,58.73v28.6l-28.59,28.38H2.56v-57H60v28.6H88.35v-28.6L2.56,77.05V49.55L31.15,20.73H145.76m2.56-2.56H30.09l-.75.76L.74,47.75,0,48.49v29.9l1.11.76,84.68,58v24.69H62.53v-28.6H0v62.09H118.22l.75-.74,28.59-28.38.76-.75v-31l-1.12-.77-85.11-58V52.1h23.7V80.7h62.53V18.17Z" transform="translate(0 -4.84)"></path>
  <path class="cls-3" d="M437.32,6.54a8.17,8.17,0,1,1-8.16,8.17,8.18,8.18,0,0,1,8.16-8.17m-9.86,8v.29a9.87,9.87,0,1,0,0-.29Z" transform="translate(0 -4.84)"></path>
  <g class="cls-15">
    <rect x="427.46" width="19.73" height="19.73"></rect>
  </g>
  <path d="M435.89,13.83h1.42A7.14,7.14,0,0,0,439,13.7a1.06,1.06,0,0,0,.54-.41,1.23,1.23,0,0,0,.19-.71,1.12,1.12,0,0,0-.26-.78,1.14,1.14,0,0,0-.72-.37q-.24,0-1.41,0h-1.5v2.42M434,19.34l0-9.54,4.06,0a7.3,7.3,0,0,1,2.22.25,2.17,2.17,0,0,1,1.12.91,2.74,2.74,0,0,1,.42,1.51,2.56,2.56,0,0,1-.63,1.77,3,3,0,0,1-1.88.89,4.33,4.33,0,0,1,1,.8,10,10,0,0,1,1.1,1.54l1.18,1.86h-2.31l-1.4-2.07a11.42,11.42,0,0,0-1-1.4,1.56,1.56,0,0,0-.58-.4,3.28,3.28,0,0,0-1-.1h-.39l0,4Z" transform="translate(0 -4.84)"></path>
  <g class="cls-16">
    <rect x="433.92" y="9.76" width="8.65" height="9.59" transform="matrix(1, 0, 0, 1, -0.05, -3.09)"></rect>
  </g>
</svg>
